<?xml version="1.0" standalone="no"?>
<!DOCTYPE svg PUBLIC "-//W3C//DTD SVG 20010904//EN"
 "http://www.w3.org/TR/2001/REC-SVG-20010904/DTD/svg10.dtd">
<svg version="1.0" xmlns="http://www.w3.org/2000/svg"
 width="1080.000000pt" height="1080.000000pt" viewBox="0 0 1080.000000 1080.000000"
 preserveAspectRatio="xMidYMid meet">
<metadata>
Created by potrace 1.14, written by Peter Selinger 2001-2017
</metadata>
<g transform="translate(0.000000,1080.000000) scale(0.100000,-0.100000)"
fill="#000000" stroke="none">
<path d="M1839 9588 c-36 -16 -70 -54 -77 -87 -2 -9 -4 -209 -5 -446 l-2 -430
-89 -2 c-121 -2 -159 -9 -231 -43 -146 -70 -238 -218 -236 -379 2 -133 55
-243 158 -327 91 -74 148 -88 384 -94 14 0 16 -30 16 -279 l0 -279 -116 -5
c-134 -5 -141 -7 -213 -42 -98 -48 -181 -145 -213 -251 -19 -63 -19 -185 0
-248 40 -132 175 -258 302 -283 16 -3 35 -6 43 -8 8 -2 56 -4 106 -4 l91 -1 0
-280 0 -280 -86 -1 c-47 -1 -90 -1 -95 0 -18 3 -123 -32 -169 -57 -58 -31
-133 -110 -164 -173 -79 -156 -49 -361 71 -479 94 -94 183 -128 341 -132 l100
-3 1 -278 c1 -275 1 -277 -20 -277 -120 -3 -209 -11 -249 -23 -105 -33 -201
-119 -253 -225 -33 -69 -45 -203 -24 -280 53 -194 215 -312 430 -314 47 0 92
-2 101 -4 14 -4 16 -37 16 -282 l0 -277 -91 0 c-157 1 -250 -32 -342 -120
-166 -162 -168 -431 -3 -596 86 -87 192 -125 345 -124 l91 0 0 -420 c0 -231 3
-437 7 -457 8 -42 63 -98 99 -99 29 -1 6194 -1 6229 0 39 1 94 53 105 98 5 23
9 1693 8 4118 l0 4080 -20 35 c-12 19 -36 43 -54 54 -33 19 -79 19 -3144 20
-2883 1 -3114 0 -3148 -16z m6086 -4189 l0 -3924 -2938 0 c-1710 0 -2941 4
-2944 9 -5 7 -8 631 -4 681 1 6 83 10 224 10 248 0 268 4 307 62 l25 37 0 326
0 326 -25 31 c-43 54 -63 58 -307 58 l-223 0 -1 30 c-3 142 -1 514 4 522 4 6
86 10 214 10 115 0 222 3 240 7 43 10 90 65 96 113 3 21 5 166 5 323 -1 412
11 397 -331 397 -120 0 -221 3 -224 7 -4 4 -8 486 -4 542 1 8 69 11 226 11
247 1 263 4 309 66 20 28 21 39 21 355 0 322 0 327 -22 358 -42 59 -67 64
-312 64 l-221 0 -1 28 c-1 30 -1 500 0 520 1 9 52 12 221 12 246 0 271 5 311
61 l24 34 0 320 c0 349 -1 357 -58 399 -27 20 -43 21 -263 24 -212 3 -234 5
-235 20 -4 77 0 535 5 539 3 4 104 6 223 6 191 0 222 2 254 18 73 36 74 39 76
364 3 345 1 365 -38 410 -40 45 -60 48 -311 48 -204 0 -208 1 -209 21 0 12 -1
168 -2 348 -2 320 -2 327 18 330 11 2 1336 3 2945 2 l2925 -1 0 -3924z m-5629
2942 c21 -1 22 -5 21 -140 l-1 -138 -350 -1 c-193 0 -367 4 -386 9 -76 19
-117 102 -91 182 29 86 60 92 462 90 178 -1 334 -2 345 -2z m21 -1541 l0 -141
-376 3 c-358 3 -377 4 -403 23 -67 49 -78 157 -22 213 41 40 56 42 435 42
l366 0 0 -140z m0 -1400 l0 -140 -364 0 c-405 0 -414 1 -453 65 -47 76 -15
169 70 207 8 4 180 7 381 7 l366 1 0 -140z m-21 -1265 c20 -4 21 -11 21 -140
0 -118 -2 -135 -16 -136 -9 0 -174 0 -368 -1 -349 0 -352 0 -389 22 -50 32
-75 88 -62 143 10 47 40 84 81 102 20 8 127 12 370 13 188 0 351 -1 363 -3z
m21 -1537 c0 -91 -4 -138 -11 -141 -6 -2 -171 -3 -366 -2 -317 1 -359 3 -388
19 -108 57 -88 231 28 255 18 3 190 6 384 6 l353 0 0 -137z"/>
<path d="M3452 7923 c-4 -1 -23 -4 -43 -7 -40 -7 -66 -26 -94 -69 -17 -27 -18
-74 -18 -886 0 -472 3 -875 7 -894 7 -38 60 -93 99 -102 12 -3 794 -4 1737 -3
1697 3 1715 3 1742 23 64 47 61 2 61 957 0 838 -1 868 -20 905 -12 24 -33 45
-58 57 -37 19 -86 19 -1722 20 -925 1 -1686 0 -1691 -1z m3183 -282 l30 -1 -2
-682 c-1 -376 -2 -691 -2 -700 -1 -17 -81 -18 -1541 -18 l-1540 0 0 699 c0
457 3 700 10 703 8 2 2936 1 3045 -1z"/>
<path d="M7368 2590 c0 -3 -2 -129 -3 -280 l-1 -275 -349 0 -350 0 0 -140 0
-140 488 0 c322 0 487 3 488 10 4 40 3 808 -1 818 -4 9 -41 13 -137 13 -73 -1
-134 -3 -135 -6z"/>
<path d="M8960 8753 c-206 -32 -371 -168 -445 -368 -30 -81 -31 -149 -29
-2770 l1 -2640 217 -575 c219 -581 237 -619 290 -636 58 -19 110 -7 149 34 19
20 88 191 243 602 l216 575 1 2650 c0 2432 -1 2655 -16 2713 -26 96 -65 168
-135 243 -129 140 -304 201 -492 172z m200 -296 c79 -38 139 -115 158 -202 4
-22 8 -105 8 -185 l-1 -145 -277 -1 c-153 -1 -279 1 -279 5 -8 40 -2 307 7
345 22 86 89 158 178 193 42 16 163 10 206 -10z m145 -816 l21 -1 -1 -2242 0
-2241 -273 0 c-149 0 -275 3 -280 7 -4 4 -7 1013 -7 2241 0 2228 0 2234 20
2237 17 3 460 2 520 -1z m-45 -4770 c0 -9 -213 -571 -216 -569 -3 4 -198 521
-208 553 -6 20 -2 20 209 20 118 0 215 -2 215 -4z"/>
</g>
</svg>
