<svg xmlns="http://www.w3.org/2000/svg" xmlns:xlink="http://www.w3.org/1999/xlink" width="1025" zoomAndPan="magnify" viewBox="0 0 768.75 165.000002" height="220" preserveAspectRatio="xMidYMid meet" version="1.0"><defs><clipPath id="id1"><path d="M 177 16 L 198.886719 16 L 198.886719 153.046875 L 177 153.046875 Z M 177 16 " clip-rule="nonzero"/></clipPath><clipPath id="id2"><path d="M 34.878906 0 L 172 0 L 172 163.871094 L 34.878906 163.871094 Z M 34.878906 0 " clip-rule="nonzero"/></clipPath></defs><g clip-path="url(#id1)"><path fill="#000000" d="M 187.953125 142.507812 L 183.703125 131.164062 L 192.199219 131.164062 Z M 182.484375 27.328125 C 182.484375 24.316406 184.941406 21.859375 187.953125 21.859375 C 190.964844 21.859375 193.417969 24.316406 193.417969 27.328125 L 193.417969 32.792969 L 182.484375 32.792969 Z M 182.484375 38.257812 L 193.417969 38.257812 L 193.417969 125.699219 L 182.484375 125.699219 Z M 187.953125 16.394531 C 181.921875 16.394531 177.019531 21.296875 177.019531 27.328125 L 177.019531 128.429688 C 177.019531 128.460938 177.082031 129.101562 177.1875 129.390625 L 185.386719 151.25 C 185.792969 152.316406 186.808594 153.023438 187.953125 153.023438 C 189.09375 153.023438 190.109375 152.316406 190.515625 151.25 L 198.714844 129.390625 C 198.824219 129.101562 198.886719 128.460938 198.886719 128.429688 L 198.886719 27.328125 C 198.886719 21.296875 193.984375 16.394531 187.953125 16.394531 " fill-opacity="1" fill-rule="nonzero"/></g><path fill="#000000" d="M 81.347656 38.257812 L 141.484375 38.257812 L 141.484375 65.582031 L 81.347656 65.582031 Z M 78.613281 71.046875 L 144.21875 71.046875 C 145.722656 71.046875 146.949219 69.820312 146.949219 68.3125 L 146.949219 35.523438 C 146.949219 34.019531 145.722656 32.792969 144.21875 32.792969 L 78.613281 32.792969 C 77.109375 32.792969 75.878906 34.019531 75.878906 35.523438 L 75.878906 68.3125 C 75.878906 69.820312 77.109375 71.046875 78.613281 71.046875 " fill-opacity="1" fill-rule="nonzero"/><path fill="#000000" d="M 141.484375 147.558594 L 141.484375 153.023438 L 160.617188 153.023438 L 160.617188 136.628906 L 155.152344 136.628906 L 155.152344 147.558594 L 141.484375 147.558594 " fill-opacity="1" fill-rule="nonzero"/><g clip-path="url(#id2)"><path fill="#000000" d="M 166.085938 158.488281 L 51.28125 158.488281 L 51.28125 144.824219 L 59.480469 144.824219 C 60.984375 144.824219 62.214844 143.597656 62.214844 142.09375 L 62.214844 131.164062 C 62.214844 129.660156 60.984375 128.429688 59.480469 128.429688 L 51.28125 128.429688 L 51.28125 117.5 L 59.480469 117.5 C 60.984375 117.5 62.214844 116.273438 62.214844 114.769531 L 62.214844 103.835938 C 62.214844 102.332031 60.984375 101.105469 59.480469 101.105469 L 51.28125 101.105469 L 51.28125 90.175781 L 59.480469 90.175781 C 60.984375 90.175781 62.214844 88.945312 62.214844 87.441406 L 62.214844 76.511719 C 62.214844 75.007812 60.984375 73.78125 59.480469 73.78125 L 51.28125 73.78125 L 51.28125 62.847656 L 59.480469 62.847656 C 60.984375 62.847656 62.214844 61.621094 62.214844 60.117188 L 62.214844 49.1875 C 62.214844 47.683594 60.984375 46.453125 59.480469 46.453125 L 51.28125 46.453125 L 51.28125 35.523438 L 59.480469 35.523438 C 60.984375 35.523438 62.214844 34.296875 62.214844 32.792969 L 62.214844 21.859375 C 62.214844 20.355469 60.984375 19.128906 59.480469 19.128906 L 51.28125 19.128906 L 51.28125 5.464844 L 166.085938 5.464844 Z M 40.347656 136.628906 C 40.347656 135.125 41.574219 133.894531 43.078125 133.894531 L 56.746094 133.894531 L 56.746094 139.359375 L 43.078125 139.359375 C 41.574219 139.359375 40.347656 138.132812 40.347656 136.628906 Z M 40.347656 109.300781 C 40.347656 107.796875 41.574219 106.570312 43.078125 106.570312 L 56.746094 106.570312 L 56.746094 112.035156 L 43.078125 112.035156 C 41.574219 112.035156 40.347656 110.808594 40.347656 109.300781 Z M 40.347656 81.976562 C 40.347656 80.472656 41.574219 79.246094 43.078125 79.246094 L 56.746094 79.246094 L 56.746094 84.710938 L 43.078125 84.710938 C 41.574219 84.710938 40.347656 83.480469 40.347656 81.976562 Z M 40.347656 54.652344 C 40.347656 53.148438 41.574219 51.917969 43.078125 51.917969 L 56.746094 51.917969 L 56.746094 57.382812 L 43.078125 57.382812 C 41.574219 57.382812 40.347656 56.15625 40.347656 54.652344 Z M 40.347656 27.328125 C 40.347656 25.820312 41.574219 24.59375 43.078125 24.59375 L 56.746094 24.59375 L 56.746094 30.058594 L 43.078125 30.058594 C 41.574219 30.058594 40.347656 28.832031 40.347656 27.328125 Z M 168.820312 0 L 48.546875 0 C 47.039062 0 45.8125 1.226562 45.8125 2.734375 L 45.8125 19.128906 L 43.078125 19.128906 C 38.550781 19.128906 34.878906 22.800781 34.878906 27.328125 C 34.878906 31.851562 38.550781 35.523438 43.078125 35.523438 L 45.8125 35.523438 L 45.8125 46.453125 L 43.078125 46.453125 C 38.550781 46.453125 34.878906 50.125 34.878906 54.652344 C 34.878906 59.179688 38.550781 62.847656 43.078125 62.847656 L 45.8125 62.847656 L 45.8125 73.78125 L 43.078125 73.78125 C 38.550781 73.78125 34.878906 77.449219 34.878906 81.976562 C 34.878906 86.503906 38.550781 90.175781 43.078125 90.175781 L 45.8125 90.175781 L 45.8125 101.105469 L 43.078125 101.105469 C 38.550781 101.105469 34.878906 104.777344 34.878906 109.300781 C 34.878906 113.828125 38.550781 117.5 43.078125 117.5 L 45.8125 117.5 L 45.8125 128.429688 L 43.078125 128.429688 C 38.550781 128.429688 34.878906 132.101562 34.878906 136.628906 C 34.878906 141.152344 38.550781 144.824219 43.078125 144.824219 L 45.8125 144.824219 L 45.8125 161.222656 C 45.8125 162.726562 47.039062 163.949219 48.546875 163.949219 L 168.820312 163.949219 C 170.324219 163.949219 171.550781 162.726562 171.550781 161.222656 L 171.550781 2.734375 C 171.550781 1.226562 170.324219 0 168.820312 0 " fill-opacity="1" fill-rule="nonzero"/></g><path fill="#000000" d="M 295.21875 71.082031 L 279.992188 71.082031 C 279.414062 67.171875 277.746094 64.101562 274.984375 61.867188 C 272.230469 59.628906 268.789062 58.507812 264.65625 58.507812 C 259.140625 58.507812 254.71875 60.53125 251.390625 64.574219 C 248.066406 68.617188 246.40625 74.34375 246.40625 81.753906 C 246.40625 89.355469 248.078125 95.128906 251.425781 99.078125 C 254.777344 103.03125 259.152344 105.003906 264.550781 105.003906 C 268.566406 105.003906 271.960938 103.960938 274.738281 101.867188 C 277.523438 99.765625 279.273438 96.816406 279.992188 93.011719 L 295.21875 93.082031 C 294.6875 97.445312 293.136719 101.550781 290.5625 105.402344 C 287.988281 109.246094 284.488281 112.359375 280.074219 114.746094 C 275.660156 117.125 270.40625 118.3125 264.308594 118.3125 C 257.960938 118.3125 252.289062 116.878906 247.292969 114.011719 C 242.300781 111.140625 238.359375 106.984375 235.472656 101.539062 C 232.585938 96.089844 231.144531 89.496094 231.144531 81.753906 C 231.144531 73.996094 232.601562 67.394531 235.519531 61.949219 C 238.441406 56.507812 242.40625 52.355469 247.410156 49.488281 C 252.417969 46.628906 258.054688 45.199219 264.308594 45.199219 C 269.804688 45.199219 274.761719 46.210938 279.175781 48.242188 C 283.589844 50.265625 287.207031 53.207031 290.027344 57.0625 C 292.839844 60.917969 294.570312 65.59375 295.21875 71.082031 Z M 295.21875 71.082031 " fill-opacity="1" fill-rule="nonzero"/><path fill="#000000" d="M 305.738281 46.164062 L 320.558594 46.164062 L 320.558594 117.347656 L 305.738281 117.347656 Z M 305.738281 46.164062 " fill-opacity="1" fill-rule="nonzero"/><path fill="#000000" d="M 356.5 118.382812 C 351.097656 118.382812 346.433594 117.234375 342.507812 114.929688 C 338.578125 112.621094 335.546875 109.402344 333.417969 105.273438 C 331.285156 101.136719 330.21875 96.335938 330.21875 90.867188 C 330.21875 85.355469 331.285156 80.527344 333.417969 76.390625 C 335.546875 72.253906 338.578125 69.035156 342.507812 66.730469 C 346.433594 64.421875 351.097656 63.265625 356.5 63.265625 C 361.894531 63.265625 366.5625 64.421875 370.488281 66.730469 C 374.417969 69.035156 377.449219 72.253906 379.582031 76.390625 C 381.71875 80.527344 382.789062 85.355469 382.789062 90.867188 C 382.789062 96.335938 381.71875 101.136719 379.582031 105.273438 C 377.449219 109.402344 374.417969 112.621094 370.488281 114.929688 C 366.5625 117.234375 361.894531 118.382812 356.5 118.382812 Z M 356.570312 106.917969 C 360.234375 106.917969 363.011719 105.390625 364.902344 102.332031 C 366.792969 99.277344 367.738281 95.421875 367.738281 90.761719 C 367.738281 86.105469 366.792969 82.238281 364.902344 79.167969 C 363.011719 76.09375 360.234375 74.558594 356.570312 74.558594 C 352.835938 74.558594 350.015625 76.09375 348.121094 79.167969 C 346.222656 82.238281 345.273438 86.105469 345.273438 90.761719 C 345.273438 95.421875 346.222656 99.277344 348.121094 102.332031 C 350.015625 105.390625 352.835938 106.917969 356.570312 106.917969 Z M 356.570312 106.917969 " fill-opacity="1" fill-rule="nonzero"/><path fill="#000000" d="M 426.683594 94.609375 L 426.683594 63.964844 L 441.492188 63.964844 L 441.492188 117.347656 L 427.28125 117.347656 L 427.28125 107.652344 L 426.71875 107.652344 C 425.511719 110.777344 423.515625 113.296875 420.722656 115.199219 C 417.925781 117.097656 414.527344 118.046875 410.523438 118.046875 C 405.148438 118.046875 400.792969 116.257812 397.464844 112.679688 C 394.132812 109.097656 392.460938 104.183594 392.4375 97.945312 L 392.4375 63.964844 L 407.257812 63.964844 L 407.257812 95.3125 C 407.277344 98.460938 408.121094 100.953125 409.789062 102.789062 C 411.460938 104.617188 413.695312 105.527344 416.496094 105.527344 C 419.164062 105.527344 421.53125 104.605469 423.605469 102.753906 C 425.679688 100.894531 426.707031 98.179688 426.683594 94.609375 Z M 426.683594 94.609375 " fill-opacity="1" fill-rule="nonzero"/><path fill="#000000" d="M 472.992188 118.210938 C 468.929688 118.210938 465.265625 117.164062 462 115.070312 C 458.730469 112.972656 456.136719 109.878906 454.214844 105.785156 C 452.292969 101.695312 451.332031 96.675781 451.332031 90.726562 C 451.332031 84.609375 452.320312 79.511719 454.296875 75.445312 C 456.28125 71.378906 458.910156 68.335938 462.1875 66.3125 C 465.46875 64.28125 469.058594 63.265625 472.957031 63.265625 C 475.945312 63.265625 478.441406 63.773438 480.449219 64.78125 C 482.453125 65.785156 484.078125 67.03125 485.3125 68.515625 C 486.550781 70.003906 487.496094 71.472656 488.148438 72.925781 L 488.605469 72.925781 L 488.605469 46.164062 L 503.378906 46.164062 L 503.378906 117.347656 L 488.769531 117.347656 L 488.769531 108.796875 L 488.148438 108.796875 C 487.472656 110.28125 486.496094 111.746094 485.21875 113.191406 C 483.953125 114.640625 482.316406 115.839844 480.308594 116.785156 C 478.300781 117.734375 475.863281 118.210938 472.992188 118.210938 Z M 477.683594 106.425781 C 481.253906 106.425781 484.011719 104.988281 485.96875 102.113281 C 487.925781 99.226562 488.90625 95.410156 488.90625 90.65625 C 488.90625 85.882812 487.933594 82.089844 485.992188 79.269531 C 484.042969 76.457031 481.277344 75.046875 477.683594 75.046875 C 474.019531 75.046875 471.230469 76.492188 469.316406 79.375 C 467.40625 82.261719 466.457031 86.023438 466.457031 90.65625 C 466.457031 95.316406 467.417969 99.109375 469.339844 102.042969 C 471.257812 104.964844 474.042969 106.425781 477.683594 106.425781 Z M 477.683594 106.425781 " fill-opacity="1" fill-rule="nonzero"/><path fill="#000000" d="M 515.773438 117.347656 L 515.773438 46.164062 L 530.59375 46.164062 L 530.59375 72.925781 L 531.039062 72.925781 C 531.714844 71.472656 532.667969 70.003906 533.898438 68.515625 C 535.125 67.03125 536.746094 65.785156 538.761719 64.78125 C 540.777344 63.773438 543.265625 63.265625 546.230469 63.265625 C 550.152344 63.265625 553.746094 64.28125 557.011719 66.3125 C 560.28125 68.335938 562.902344 71.378906 564.878906 75.445312 C 566.863281 79.511719 567.855469 84.609375 567.855469 90.726562 C 567.855469 96.675781 566.890625 101.695312 564.972656 105.785156 C 563.050781 109.878906 560.457031 112.972656 557.1875 115.070312 C 553.921875 117.164062 550.257812 118.210938 546.195312 118.210938 C 543.324219 118.210938 540.886719 117.734375 538.878906 116.785156 C 536.871094 115.839844 535.238281 114.640625 533.980469 113.191406 C 532.71875 111.746094 531.738281 110.28125 531.039062 108.796875 L 530.382812 108.796875 L 530.382812 117.347656 Z M 530.28125 90.65625 C 530.28125 95.410156 531.253906 99.226562 533.207031 102.113281 C 535.167969 104.988281 537.933594 106.425781 541.503906 106.425781 C 545.144531 106.425781 547.925781 104.964844 549.847656 102.042969 C 551.769531 99.109375 552.730469 95.316406 552.730469 90.65625 C 552.730469 86.023438 551.773438 82.261719 549.859375 79.375 C 547.953125 76.492188 545.167969 75.046875 541.503906 75.046875 C 537.910156 75.046875 535.140625 76.457031 533.195312 79.269531 C 531.25 82.089844 530.28125 85.882812 530.28125 90.65625 Z M 530.28125 90.65625 " fill-opacity="1" fill-rule="nonzero"/><path fill="#000000" d="M 601.816406 118.382812 C 596.417969 118.382812 591.75 117.234375 587.824219 114.929688 C 583.894531 112.621094 580.863281 109.402344 578.734375 105.273438 C 576.601562 101.136719 575.539062 96.335938 575.539062 90.867188 C 575.539062 85.355469 576.601562 80.527344 578.734375 76.390625 C 580.863281 72.253906 583.894531 69.035156 587.824219 66.730469 C 591.75 64.421875 596.417969 63.265625 601.816406 63.265625 C 607.214844 63.265625 611.878906 64.421875 615.808594 66.730469 C 619.734375 69.035156 622.765625 72.253906 624.898438 76.390625 C 627.035156 80.527344 628.105469 85.355469 628.105469 90.867188 C 628.105469 96.335938 627.035156 101.136719 624.898438 105.273438 C 622.765625 109.402344 619.734375 112.621094 615.808594 114.929688 C 611.878906 117.234375 607.214844 118.382812 601.816406 118.382812 Z M 601.886719 106.917969 C 605.550781 106.917969 608.328125 105.390625 610.21875 102.332031 C 612.109375 99.277344 613.054688 95.421875 613.054688 90.761719 C 613.054688 86.105469 612.109375 82.238281 610.21875 79.167969 C 608.328125 76.09375 605.550781 74.558594 601.886719 74.558594 C 598.152344 74.558594 595.335938 76.09375 593.4375 79.167969 C 591.539062 82.238281 590.589844 86.105469 590.589844 90.761719 C 590.589844 95.421875 591.539062 99.277344 593.4375 102.332031 C 595.335938 105.390625 598.152344 106.917969 601.886719 106.917969 Z M 601.886719 106.917969 " fill-opacity="1" fill-rule="nonzero"/><path fill="#000000" d="M 661.886719 118.382812 C 656.484375 118.382812 651.820312 117.234375 647.894531 114.929688 C 643.964844 112.621094 640.933594 109.402344 638.804688 105.273438 C 636.671875 101.136719 635.605469 96.335938 635.605469 90.867188 C 635.605469 85.355469 636.671875 80.527344 638.804688 76.390625 C 640.933594 72.253906 643.964844 69.035156 647.894531 66.730469 C 651.820312 64.421875 656.484375 63.265625 661.886719 63.265625 C 667.28125 63.265625 671.945312 64.421875 675.875 66.730469 C 679.800781 69.035156 682.832031 72.253906 684.964844 76.390625 C 687.105469 80.527344 688.175781 85.355469 688.175781 90.867188 C 688.175781 96.335938 687.105469 101.136719 684.964844 105.273438 C 682.832031 109.402344 679.800781 112.621094 675.875 114.929688 C 671.945312 117.234375 667.28125 118.382812 661.886719 118.382812 Z M 661.953125 106.917969 C 665.617188 106.917969 668.394531 105.390625 670.285156 102.332031 C 672.175781 99.277344 673.121094 95.421875 673.121094 90.761719 C 673.121094 86.105469 672.175781 82.238281 670.285156 79.167969 C 668.394531 76.09375 665.617188 74.558594 661.953125 74.558594 C 658.222656 74.558594 655.402344 76.09375 653.507812 79.167969 C 651.605469 82.238281 650.660156 86.105469 650.660156 90.761719 C 650.660156 95.421875 651.605469 99.277344 653.507812 102.332031 C 655.402344 105.390625 658.222656 106.917969 661.953125 106.917969 Z M 661.953125 106.917969 " fill-opacity="1" fill-rule="nonzero"/><path fill="#000000" d="M 697.824219 117.347656 L 697.824219 46.164062 L 712.644531 46.164062 L 712.644531 84.230469 L 713.4375 84.230469 L 730.542969 63.964844 L 747.546875 63.964844 L 727.730469 87.074219 L 748.546875 117.347656 L 731.207031 117.347656 L 716.632812 95.835938 L 712.644531 100.386719 L 712.644531 117.347656 Z M 697.824219 117.347656 " fill-opacity="1" fill-rule="nonzero"/></svg>