<svg xmlns="http://www.w3.org/2000/svg" xmlns:xlink="http://www.w3.org/1999/xlink" width="1366" zoomAndPan="magnify" viewBox="0 0 1024.5 219.75" height="293" preserveAspectRatio="xMidYMid meet" version="1.0"><defs><g/><clipPath id="id1"><path d="M 234 21 L 263.710938 21 L 263.710938 205 L 234 205 Z M 234 21 " clip-rule="nonzero"/></clipPath><clipPath id="id2"><path d="M 44.101562 0 L 228 0 L 228 219.5 L 44.101562 219.5 Z M 44.101562 0 " clip-rule="nonzero"/></clipPath></defs><g clip-path="url(#id1)"><path fill="#ffffff" d="M 249.070312 190.882812 L 243.378906 175.6875 L 254.757812 175.6875 Z M 241.75 36.601562 C 241.75 32.570312 245.039062 29.28125 249.070312 29.28125 C 253.101562 29.28125 256.390625 32.570312 256.390625 36.601562 L 256.390625 43.921875 L 241.75 43.921875 Z M 241.75 51.242188 L 256.390625 51.242188 L 256.390625 168.367188 L 241.75 168.367188 Z M 249.070312 21.960938 C 240.992188 21.960938 234.429688 28.523438 234.429688 36.601562 L 234.429688 172.027344 C 234.429688 172.070312 234.515625 172.925781 234.65625 173.3125 L 245.636719 202.59375 C 246.179688 204.023438 247.539062 204.96875 249.070312 204.96875 C 250.597656 204.96875 251.957031 204.023438 252.5 202.59375 L 263.480469 173.3125 C 263.625 172.925781 263.710938 172.070312 263.710938 172.027344 L 263.710938 36.601562 C 263.710938 28.523438 257.148438 21.960938 249.070312 21.960938 " fill-opacity="1" fill-rule="nonzero"/></g><path fill="#ffffff" d="M 106.324219 51.242188 L 186.847656 51.242188 L 186.847656 87.84375 L 106.324219 87.84375 Z M 102.664062 95.164062 L 190.507812 95.164062 C 192.523438 95.164062 194.167969 93.519531 194.167969 91.503906 L 194.167969 47.582031 C 194.167969 45.566406 192.523438 43.921875 190.507812 43.921875 L 102.664062 43.921875 C 100.648438 43.921875 99.003906 45.566406 99.003906 47.582031 L 99.003906 91.503906 C 99.003906 93.519531 100.648438 95.164062 102.664062 95.164062 " fill-opacity="1" fill-rule="nonzero"/><path fill="#ffffff" d="M 186.847656 197.648438 L 186.847656 204.96875 L 212.46875 204.96875 L 212.46875 183.007812 L 205.148438 183.007812 L 205.148438 197.648438 L 186.847656 197.648438 " fill-opacity="1" fill-rule="nonzero"/><g clip-path="url(#id2)"><path fill="#ffffff" d="M 219.789062 212.289062 L 66.0625 212.289062 L 66.0625 193.988281 L 77.042969 193.988281 C 79.058594 193.988281 80.703125 192.34375 80.703125 190.328125 L 80.703125 175.6875 C 80.703125 173.671875 79.058594 172.027344 77.042969 172.027344 L 66.0625 172.027344 L 66.0625 157.386719 L 77.042969 157.386719 C 79.058594 157.386719 80.703125 155.742188 80.703125 153.726562 L 80.703125 139.085938 C 80.703125 137.070312 79.058594 135.425781 77.042969 135.425781 L 66.0625 135.425781 L 66.0625 120.785156 L 77.042969 120.785156 C 79.058594 120.785156 80.703125 119.140625 80.703125 117.125 L 80.703125 102.484375 C 80.703125 100.46875 79.058594 98.824219 77.042969 98.824219 L 66.0625 98.824219 L 66.0625 84.183594 L 77.042969 84.183594 C 79.058594 84.183594 80.703125 82.539062 80.703125 80.523438 L 80.703125 65.882812 C 80.703125 63.867188 79.058594 62.222656 77.042969 62.222656 L 66.0625 62.222656 L 66.0625 47.582031 L 77.042969 47.582031 C 79.058594 47.582031 80.703125 45.9375 80.703125 43.921875 L 80.703125 29.28125 C 80.703125 27.265625 79.058594 25.621094 77.042969 25.621094 L 66.0625 25.621094 L 66.0625 7.320312 L 219.789062 7.320312 Z M 51.421875 183.007812 C 51.421875 180.992188 53.066406 179.347656 55.082031 179.347656 L 73.382812 179.347656 L 73.382812 186.667969 L 55.082031 186.667969 C 53.066406 186.667969 51.421875 185.023438 51.421875 183.007812 Z M 51.421875 146.40625 C 51.421875 144.390625 53.066406 142.746094 55.082031 142.746094 L 73.382812 142.746094 L 73.382812 150.066406 L 55.082031 150.066406 C 53.066406 150.066406 51.421875 148.421875 51.421875 146.40625 Z M 51.421875 109.804688 C 51.421875 107.789062 53.066406 106.144531 55.082031 106.144531 L 73.382812 106.144531 L 73.382812 113.464844 L 55.082031 113.464844 C 53.066406 113.464844 51.421875 111.820312 51.421875 109.804688 Z M 51.421875 73.203125 C 51.421875 71.1875 53.066406 69.542969 55.082031 69.542969 L 73.382812 69.542969 L 73.382812 76.863281 L 55.082031 76.863281 C 53.066406 76.863281 51.421875 75.21875 51.421875 73.203125 Z M 51.421875 36.601562 C 51.421875 34.585938 53.066406 32.941406 55.082031 32.941406 L 73.382812 32.941406 L 73.382812 40.261719 L 55.082031 40.261719 C 53.066406 40.261719 51.421875 38.617188 51.421875 36.601562 Z M 223.449219 0 L 62.402344 0 C 60.386719 0 58.742188 1.644531 58.742188 3.660156 L 58.742188 25.621094 L 55.082031 25.621094 C 49.019531 25.621094 44.101562 30.539062 44.101562 36.601562 C 44.101562 42.664062 49.019531 47.582031 55.082031 47.582031 L 58.742188 47.582031 L 58.742188 62.222656 L 55.082031 62.222656 C 49.019531 62.222656 44.101562 67.140625 44.101562 73.203125 C 44.101562 79.265625 49.019531 84.183594 55.082031 84.183594 L 58.742188 84.183594 L 58.742188 98.824219 L 55.082031 98.824219 C 49.019531 98.824219 44.101562 103.742188 44.101562 109.804688 C 44.101562 115.867188 49.019531 120.785156 55.082031 120.785156 L 58.742188 120.785156 L 58.742188 135.425781 L 55.082031 135.425781 C 49.019531 135.425781 44.101562 140.34375 44.101562 146.40625 C 44.101562 152.46875 49.019531 157.386719 55.082031 157.386719 L 58.742188 157.386719 L 58.742188 172.027344 L 55.082031 172.027344 C 49.019531 172.027344 44.101562 176.945312 44.101562 183.007812 C 44.101562 189.066406 49.019531 193.988281 55.082031 193.988281 L 58.742188 193.988281 L 58.742188 215.949219 C 58.742188 217.964844 60.386719 219.605469 62.402344 219.605469 L 223.449219 219.605469 C 225.464844 219.605469 227.109375 217.964844 227.109375 215.949219 L 227.109375 3.660156 C 227.109375 1.644531 225.464844 0 223.449219 0 " fill-opacity="1" fill-rule="nonzero"/></g><g fill="#ffffff" fill-opacity="1"><g transform="translate(300.295397, 157.180727)"><g><path d="M 92.40625 -61.96875 L 72.015625 -61.96875 C 71.242188 -67.207031 69.007812 -71.320312 65.3125 -74.3125 C 61.625 -77.3125 57.015625 -78.8125 51.484375 -78.8125 C 44.097656 -78.8125 38.175781 -76.101562 33.71875 -70.6875 C 29.269531 -65.269531 27.046875 -57.597656 27.046875 -47.671875 C 27.046875 -37.492188 29.285156 -29.757812 33.765625 -24.46875 C 38.253906 -19.175781 44.113281 -16.53125 51.34375 -16.53125 C 56.71875 -16.53125 61.265625 -17.929688 64.984375 -20.734375 C 68.710938 -23.546875 71.054688 -27.5 72.015625 -32.59375 L 92.40625 -32.5 C 91.695312 -26.65625 89.617188 -21.15625 86.171875 -16 C 82.722656 -10.851562 78.039062 -6.679688 72.125 -3.484375 C 66.21875 -0.296875 59.179688 1.296875 51.015625 1.296875 C 42.515625 1.296875 34.921875 -0.625 28.234375 -4.46875 C 21.546875 -8.3125 16.269531 -13.878906 12.40625 -21.171875 C 8.539062 -28.472656 6.609375 -37.304688 6.609375 -47.671875 C 6.609375 -58.066406 8.5625 -66.910156 12.46875 -74.203125 C 16.382812 -81.492188 21.691406 -87.054688 28.390625 -90.890625 C 35.097656 -94.722656 42.640625 -96.640625 51.015625 -96.640625 C 58.378906 -96.640625 65.015625 -95.28125 70.921875 -92.5625 C 76.835938 -89.851562 81.679688 -85.914062 85.453125 -80.75 C 89.222656 -75.582031 91.539062 -69.320312 92.40625 -61.96875 Z M 92.40625 -61.96875 "/></g></g></g><g fill="#ffffff" fill-opacity="1"><g transform="translate(398.882483, 157.180727)"><g><path d="M 27.75 -95.34375 L 27.75 0 L 7.90625 0 L 7.90625 -95.34375 Z M 27.75 -95.34375 "/></g></g></g><g fill="#ffffff" fill-opacity="1"><g transform="translate(434.5377, 157.180727)"><g><path d="M 40.21875 1.390625 C 32.988281 1.390625 26.742188 -0.148438 21.484375 -3.234375 C 16.222656 -6.328125 12.164062 -10.640625 9.3125 -16.171875 C 6.457031 -21.710938 5.03125 -28.144531 5.03125 -35.46875 C 5.03125 -42.851562 6.457031 -49.316406 9.3125 -54.859375 C 12.164062 -60.398438 16.222656 -64.710938 21.484375 -67.796875 C 26.742188 -70.890625 32.988281 -72.4375 40.21875 -72.4375 C 47.445312 -72.4375 53.691406 -70.890625 58.953125 -67.796875 C 64.210938 -64.710938 68.269531 -60.398438 71.125 -54.859375 C 73.988281 -49.316406 75.421875 -42.851562 75.421875 -35.46875 C 75.421875 -28.144531 73.988281 -21.710938 71.125 -16.171875 C 68.269531 -10.640625 64.210938 -6.328125 58.953125 -3.234375 C 53.691406 -0.148438 47.445312 1.390625 40.21875 1.390625 Z M 40.3125 -13.96875 C 45.21875 -13.96875 48.9375 -16.015625 51.46875 -20.109375 C 54 -24.203125 55.265625 -29.367188 55.265625 -35.609375 C 55.265625 -41.847656 54 -47.023438 51.46875 -51.140625 C 48.9375 -55.253906 45.21875 -57.3125 40.3125 -57.3125 C 35.3125 -57.3125 31.539062 -55.253906 29 -51.140625 C 26.457031 -47.023438 25.1875 -41.847656 25.1875 -35.609375 C 25.1875 -29.367188 26.457031 -24.203125 29 -20.109375 C 31.539062 -16.015625 35.3125 -13.96875 40.3125 -13.96875 Z M 40.3125 -13.96875 "/></g></g></g><g fill="#ffffff" fill-opacity="1"><g transform="translate(514.971368, 157.180727)"><g><path d="M 53.765625 -30.453125 L 53.765625 -71.5 L 73.59375 -71.5 L 73.59375 0 L 54.5625 0 L 54.5625 -12.984375 L 53.8125 -12.984375 C 52.195312 -8.796875 49.519531 -5.425781 45.78125 -2.875 C 42.039062 -0.332031 37.488281 0.9375 32.125 0.9375 C 24.925781 0.9375 19.097656 -1.457031 14.640625 -6.25 C 10.179688 -11.050781 7.9375 -17.628906 7.90625 -25.984375 L 7.90625 -71.5 L 27.75 -71.5 L 27.75 -29.515625 C 27.78125 -25.296875 28.910156 -21.957031 31.140625 -19.5 C 33.378906 -17.050781 36.375 -15.828125 40.125 -15.828125 C 43.695312 -15.828125 46.867188 -17.066406 49.640625 -19.546875 C 52.421875 -22.035156 53.796875 -25.671875 53.765625 -30.453125 Z M 53.765625 -30.453125 "/></g></g></g><g fill="#ffffff" fill-opacity="1"><g transform="translate(596.475626, 157.180727)"><g><path d="M 34.265625 1.15625 C 28.828125 1.15625 23.921875 -0.242188 19.546875 -3.046875 C 15.171875 -5.859375 11.695312 -10.003906 9.125 -15.484375 C 6.550781 -20.960938 5.265625 -27.6875 5.265625 -35.65625 C 5.265625 -43.851562 6.585938 -50.675781 9.234375 -56.125 C 11.890625 -61.570312 15.410156 -65.648438 19.796875 -68.359375 C 24.191406 -71.078125 29 -72.4375 34.21875 -72.4375 C 38.21875 -72.4375 41.5625 -71.757812 44.25 -70.40625 C 46.9375 -69.0625 49.109375 -67.394531 50.765625 -65.40625 C 52.421875 -63.414062 53.6875 -61.445312 54.5625 -59.5 L 55.171875 -59.5 L 55.171875 -95.34375 L 74.953125 -95.34375 L 74.953125 0 L 55.390625 0 L 55.390625 -11.453125 L 54.5625 -11.453125 C 53.65625 -9.460938 52.347656 -7.5 50.640625 -5.5625 C 48.941406 -3.625 46.75 -2.019531 44.0625 -0.75 C 41.375 0.519531 38.109375 1.15625 34.265625 1.15625 Z M 40.546875 -14.625 C 45.328125 -14.625 49.023438 -16.550781 51.640625 -20.40625 C 54.265625 -24.269531 55.578125 -29.382812 55.578125 -35.75 C 55.578125 -42.144531 54.273438 -47.226562 51.671875 -51 C 49.066406 -54.769531 45.359375 -56.65625 40.546875 -56.65625 C 35.640625 -56.65625 31.90625 -54.722656 29.34375 -50.859375 C 26.789062 -46.992188 25.515625 -41.957031 25.515625 -35.75 C 25.515625 -29.507812 26.800781 -24.425781 29.375 -20.5 C 31.945312 -16.582031 35.671875 -14.625 40.546875 -14.625 Z M 40.546875 -14.625 "/></g></g></g><g fill="#ffffff" fill-opacity="1"><g transform="translate(679.748683, 157.180727)"><g><path d="M 8.28125 0 L 8.28125 -95.34375 L 28.125 -95.34375 L 28.125 -59.5 L 28.71875 -59.5 C 29.625 -61.445312 30.898438 -63.414062 32.546875 -65.40625 C 34.191406 -67.394531 36.363281 -69.0625 39.0625 -70.40625 C 41.757812 -71.757812 45.09375 -72.4375 49.0625 -72.4375 C 54.3125 -72.4375 59.125 -71.078125 63.5 -68.359375 C 67.875 -65.648438 71.382812 -61.570312 74.03125 -56.125 C 76.6875 -50.675781 78.015625 -43.851562 78.015625 -35.65625 C 78.015625 -27.6875 76.726562 -20.960938 74.15625 -15.484375 C 71.582031 -10.003906 68.109375 -5.859375 63.734375 -3.046875 C 59.359375 -0.242188 54.453125 1.15625 49.015625 1.15625 C 45.171875 1.15625 41.90625 0.519531 39.21875 -0.75 C 36.53125 -2.019531 34.34375 -3.625 32.65625 -5.5625 C 30.96875 -7.5 29.65625 -9.460938 28.71875 -11.453125 L 27.84375 -11.453125 L 27.84375 0 Z M 27.703125 -35.75 C 27.703125 -29.382812 29.007812 -24.269531 31.625 -20.40625 C 34.25 -16.550781 37.953125 -14.625 42.734375 -14.625 C 47.609375 -14.625 51.332031 -16.582031 53.90625 -20.5 C 56.476562 -24.425781 57.765625 -29.507812 57.765625 -35.75 C 57.765625 -41.957031 56.484375 -46.992188 53.921875 -50.859375 C 51.367188 -54.722656 47.640625 -56.65625 42.734375 -56.65625 C 37.921875 -56.65625 34.210938 -54.769531 31.609375 -51 C 29.003906 -47.226562 27.703125 -42.144531 27.703125 -35.75 Z M 27.703125 -35.75 "/></g></g></g><g fill="#ffffff" fill-opacity="1"><g transform="translate(763.02174, 157.180727)"><g><path d="M 40.21875 1.390625 C 32.988281 1.390625 26.742188 -0.148438 21.484375 -3.234375 C 16.222656 -6.328125 12.164062 -10.640625 9.3125 -16.171875 C 6.457031 -21.710938 5.03125 -28.144531 5.03125 -35.46875 C 5.03125 -42.851562 6.457031 -49.316406 9.3125 -54.859375 C 12.164062 -60.398438 16.222656 -64.710938 21.484375 -67.796875 C 26.742188 -70.890625 32.988281 -72.4375 40.21875 -72.4375 C 47.445312 -72.4375 53.691406 -70.890625 58.953125 -67.796875 C 64.210938 -64.710938 68.269531 -60.398438 71.125 -54.859375 C 73.988281 -49.316406 75.421875 -42.851562 75.421875 -35.46875 C 75.421875 -28.144531 73.988281 -21.710938 71.125 -16.171875 C 68.269531 -10.640625 64.210938 -6.328125 58.953125 -3.234375 C 53.691406 -0.148438 47.445312 1.390625 40.21875 1.390625 Z M 40.3125 -13.96875 C 45.21875 -13.96875 48.9375 -16.015625 51.46875 -20.109375 C 54 -24.203125 55.265625 -29.367188 55.265625 -35.609375 C 55.265625 -41.847656 54 -47.023438 51.46875 -51.140625 C 48.9375 -55.253906 45.21875 -57.3125 40.3125 -57.3125 C 35.3125 -57.3125 31.539062 -55.253906 29 -51.140625 C 26.457031 -47.023438 25.1875 -41.847656 25.1875 -35.609375 C 25.1875 -29.367188 26.457031 -24.203125 29 -20.109375 C 31.539062 -16.015625 35.3125 -13.96875 40.3125 -13.96875 Z M 40.3125 -13.96875 "/></g></g></g><g fill="#ffffff" fill-opacity="1"><g transform="translate(843.455408, 157.180727)"><g><path d="M 40.21875 1.390625 C 32.988281 1.390625 26.742188 -0.148438 21.484375 -3.234375 C 16.222656 -6.328125 12.164062 -10.640625 9.3125 -16.171875 C 6.457031 -21.710938 5.03125 -28.144531 5.03125 -35.46875 C 5.03125 -42.851562 6.457031 -49.316406 9.3125 -54.859375 C 12.164062 -60.398438 16.222656 -64.710938 21.484375 -67.796875 C 26.742188 -70.890625 32.988281 -72.4375 40.21875 -72.4375 C 47.445312 -72.4375 53.691406 -70.890625 58.953125 -67.796875 C 64.210938 -64.710938 68.269531 -60.398438 71.125 -54.859375 C 73.988281 -49.316406 75.421875 -42.851562 75.421875 -35.46875 C 75.421875 -28.144531 73.988281 -21.710938 71.125 -16.171875 C 68.269531 -10.640625 64.210938 -6.328125 58.953125 -3.234375 C 53.691406 -0.148438 47.445312 1.390625 40.21875 1.390625 Z M 40.3125 -13.96875 C 45.21875 -13.96875 48.9375 -16.015625 51.46875 -20.109375 C 54 -24.203125 55.265625 -29.367188 55.265625 -35.609375 C 55.265625 -41.847656 54 -47.023438 51.46875 -51.140625 C 48.9375 -55.253906 45.21875 -57.3125 40.3125 -57.3125 C 35.3125 -57.3125 31.539062 -55.253906 29 -51.140625 C 26.457031 -47.023438 25.1875 -41.847656 25.1875 -35.609375 C 25.1875 -29.367188 26.457031 -24.203125 29 -20.109375 C 31.539062 -16.015625 35.3125 -13.96875 40.3125 -13.96875 Z M 40.3125 -13.96875 "/></g></g></g><g fill="#ffffff" fill-opacity="1"><g transform="translate(923.889107, 157.180727)"><g><path d="M 7.90625 0 L 7.90625 -95.34375 L 27.75 -95.34375 L 27.75 -44.359375 L 28.8125 -44.359375 L 51.71875 -71.5 L 74.484375 -71.5 L 47.953125 -40.546875 L 75.828125 0 L 52.609375 0 L 33.09375 -28.8125 L 27.75 -22.71875 L 27.75 0 Z M 7.90625 0 "/></g></g></g></svg>